<svg xmlns="http://www.w3.org/2000/svg" viewBox="0 0 32 32" xml:space="preserve" width="28" role="presentation" alt="" data-testid="StorageIcon" size="28" color="currentColor"><ellipse cx="16" cy="4.234" rx="13" ry="4.234" fill-rule="evenodd" clip-rule="evenodd" fill="currentColor"></ellipse><path fill="currentColor" d="M3 15.71v5.293c0 .408.239.781.616.935C7.085 23.35 11.362 24.192 16 24.192s8.915-.84 12.384-2.254c.377-.154.616-.527.616-.935V15.71c-3.573 1.57-8.084 2.515-13 2.515S6.573 17.28 3 15.71z"></path><path fill="currentColor" d="M3 7.852v5.292c0 .408.239.782.616.935 3.469 1.414 7.746 2.254 12.384 2.254s8.915-.84 12.384-2.254c.377-.153.616-.527.616-.935V7.852c-3.573 1.57-8.084 2.514-13 2.514S6.573 9.422 3 7.852zm26 15.767c-3.573 1.57-8.084 2.514-13 2.514S6.573 25.19 3 23.62v4.147C3 30.104 8.82 32 16 32s13-1.896 13-4.234"></path></svg>