<svg xmlns="http://www.w3.org/2000/svg" viewBox="0 0 32 32" width="28" role="presentation" alt="" data-testid="GlobeIcon" size="28" color="currentColor"><path d="M16 0C11.7 0 7.7 1.7 4.7 4.7S0 11.7 0 16c0 4.3 1.7 8.3 4.7 11.3S11.7 32 16 32c8.8 0 16-7.2 16-16S24.8 0 16 0zm-5.2 4c-.5.9-1 1.9-1.4 3-.6-.2-1.3-.5-2-.8 1-1 2.2-1.7 3.4-2.2zM5.5 8.1c1 .5 2.1 1 3.2 1.4-.4 1.6-.6 3.4-.7 5.2H3c.2-2.4 1.1-4.6 2.5-6.6zM3 17.3h5.1c.1 1.8.3 3.5.7 5.2-1.1.4-2.2.8-3.2 1.4-1.5-2-2.4-4.2-2.6-6.6zm4.4 8.5c.7-.3 1.4-.6 2.1-.8.4 1.1.9 2.1 1.4 3-1.3-.5-2.5-1.2-3.5-2.2zm7.3 2.8c-1-.8-2-2.3-2.7-4.3.9-.2 1.8-.3 2.7-.4v4.7zm0-7.3c-1.1.1-2.3.2-3.4.5-.3-1.4-.5-2.9-.6-4.5h4v4zm0-6.6h-4c.1-1.6.3-3.1.6-4.5 1.1.2 2.3.4 3.4.5v4zm0-6.7c-1 0-1.8-.1-2.7-.3.7-2 1.7-3.5 2.7-4.2V8zM29 14.7h-5.1c-.1-1.8-.3-3.5-.7-5.2 1.1-.4 2.2-.8 3.2-1.4 1.5 2 2.4 4.2 2.6 6.6zm-4.4-8.5c-.7.3-1.4.6-2.1.8-.4-1.1-.9-2.2-1.4-3.1 1.3.6 2.5 1.3 3.5 2.3zm-7.3-2.7c1 .8 1.9 2.3 2.6 4.2-.8.2-1.7.3-2.6.3V3.5zm0 7.2c1.1-.1 2.3-.2 3.4-.4.3 1.4.5 2.9.6 4.5h-3.9v-4.1zm0 17.8V24c.9.1 1.8.2 2.6.4-.6 1.8-1.6 3.4-2.6 4.1zm0-7.2v-4h3.9c-.1 1.6-.3 3.1-.6 4.5-1-.2-2.1-.4-3.3-.5zm3.8 6.8c.5-.9 1-1.9 1.4-3.1.7.2 1.4.5 2.1.9-1 .9-2.2 1.6-3.5 2.2zm5.4-4.2c-1-.5-2.1-1-3.2-1.4.4-1.6.6-3.4.7-5.1h5c-.2 2.3-1.1 4.5-2.5 6.5z" fill-rule="evenodd" clip-rule="evenodd" fill="currentColor"></path></svg>