<svg data-name="Switch lite" xmlns="http://www.w3.org/2000/svg" viewBox="0 0 32 32" width="28" role="presentation" alt="" data-testid="SwitchLiteIcon" size="28" color="currentColor"><path d="M28.737 9.41H3.262a3.218 3.218 0 0 0-3.218 3.218v7.164a3.218 3.218 0 0 0 3.218 3.218h25.475a3.218 3.218 0 0 0 3.219-3.218v-7.164a3.218 3.218 0 0 0-3.219-3.218zm.112 2.173a.563.563 0 1 1-.563.563.563.563 0 0 1 .563-.563zm0 2.32a.563.563 0 1 1-.563.564.563.563 0 0 1 .563-.563zM3.146 12.106a1.2 1.2 0 1 1-1.2 1.201 1.2 1.2 0 0 1 1.2-1.2zm1.437 5.85a.125.125 0 0 1-.125.125h-.731a.133.133 0 0 0-.133.134v.73a.126.126 0 0 1-.125.126h-.636a.125.125 0 0 1-.126-.126v-.73a.133.133 0 0 0-.132-.134h-.732a.125.125 0 0 1-.125-.125v-.636a.125.125 0 0 1 .125-.125h.732a.133.133 0 0 0 .132-.133v-.73a.125.125 0 0 1 .126-.126h.636a.126.126 0 0 1 .125.125v.731a.133.133 0 0 0 .133.133h.73a.125.125 0 0 1 .126.125zm1.674 3.654h19.497V10.82H6.257zm20.807-8.302a.563.563 0 1 1 .563.563.563.563 0 0 1-.563-.563zm1.778 5.532a1.2 1.2 0 1 1 1.2-1.2 1.2 1.2 0 0 1-1.2 1.2zm1.23-4.97a.563.563 0 1 1 .562-.562.563.563 0 0 1-.563.563z" fill="currentColor" fill-rule="evenodd"></path></svg>