<svg xmlns="http://www.w3.org/2000/svg" viewBox="0 0 32 32" xml:space="preserve" width="28" role="presentation" alt="" data-testid="GroupIcon" size="28" color="currentColor"><path fill="currentColor" d="M9 13c0 3.8 3.1 6.9 6.9 6.9 3.8 0 6.9-3.1 6.9-6.9 0-3.8-3.1-6.9-6.9-6.9C12.1 6.1 9 9.2 9 13z"></path><path fill="currentColor" d="M24.3 13c0 .7-.1 1.4-.3 2h.3c3.2 0 5.8-2.6 5.8-5.9 0-3.3-2.6-5.9-5.8-5.9-1.8 0-3.5.9-4.5 2.3 2.7 1.4 4.5 4.2 4.5 7.5zM7.4 15h.3c-.2-.6-.3-1.3-.3-2 0-3.3 1.8-6.1 4.5-7.5-1.1-1.4-2.7-2.3-4.5-2.3-3.2 0-5.8 2.6-5.8 5.9 0 3.3 2.6 5.9 5.8 5.9zm5.1 5.7c-1.8-.8-3.2-2.2-4.1-3.9-.3 0-.6-.1-1-.1C3.3 16.8 0 19.6 0 23h8.2c1.2-1 2.6-1.8 4.3-2.3zm11.8-3.9c-.3 0-.7 0-1 .1-.9 1.7-2.3 3.1-4.1 3.9 1.6.5 3.1 1.3 4.2 2.3h8.2c.2-3.5-3.2-6.3-7.3-6.3zm-8.4 5.1c-4.8 0-8.7 3-9 6.7h18c-.4-3.8-4.3-6.7-9-6.7z"></path></svg>