<svg xmlns="http://www.w3.org/2000/svg" viewBox="0 0 32 32" width="28" role="presentation" alt="" data-testid="BuildingIcon" size="28" color="currentColor"><path d="M28.9 2.1C28.9 1 28 0 26.8 0H5.6C4.4 0 3.5 1 3.5 2.1v29.8H12v-6.4h7.4v6.4h9.5V2.1zm-19 25.6H6.7v-3.2h3.2v3.2zm0-5.4H6.7v-3.2h3.2v3.2zm0-5.3H6.7v-3.2h3.2V17zm0-5.3H6.7V8.5h3.2v3.2zm0-5.3H6.7V3.2h3.2v3.2zm5.2 15.9H12v-3.2h3.2v3.2zm0-5.3H12v-3.2h3.2V17zm0-5.3H12V8.5h3.2v3.2zm0-5.3H12V3.2h3.2v3.2zm5.3 15.9h-3.2v-3.2h3.2v3.2zm0-5.3h-3.2v-3.2h3.2V17zm0-5.3h-3.2V8.5h3.2v3.2zm0-5.3h-3.2V3.2h3.2v3.2zm5.3 21.3h-3.2v-3.2h3.2v3.2zm0-5.4h-3.2v-3.2h3.2v3.2zm0-5.3h-3.2v-3.2h3.2V17zm0-5.3h-3.2V8.5h3.2v3.2zm0-5.3h-3.2V3.2h3.2v3.2z" fill-rule="evenodd" clip-rule="evenodd" fill="currentColor"></path></svg>