<?xml version="1.0" encoding="utf-8"?>
<!-- Generator: Adobe Illustrator 25.0.1, SVG Export Plug-In . SVG Version: 6.00 Build 0)  -->
<svg version="1.0" id="Layer_1" xmlns="http://www.w3.org/2000/svg" xmlns:xlink="http://www.w3.org/1999/xlink" x="0px" y="0px"
	 viewBox="0 0 310.4 200.9" style="enable-background:new 0 0 310.4 200.9;" xml:space="preserve">
<style type="text/css">
	.st0{fill:#FFFFFF;}
	.st1{fill:#085EA9;}
	.st2{fill:#151011;}
</style>
<g>
	<g>
		<path class="st0" d="M212,23.7H98V178h114V23.7L212,23.7z"/>
	</g>
	<polyline points="210.4,25.3 210.4,176.3 99.8,176.3 99.8,25.3 210.4,25.3 	"/>
	<g>
		<rect x="105.8" y="31" class="st0" width="98.7" height="23"/>
	</g>
	<g>
		<rect x="106" y="59.7" class="st0" width="98.6" height="89.8"/>
	</g>
	<g>
		<path d="M111.6,35.4c2.2,0,3.1,0.6,3.1,2.6v3c0,1.9-0.9,2.6-2.9,2.6h-0.5v6.1h-1.8V35.4H111.6z M111.2,42.1h0.3
			c1.1,0,1.3-0.4,1.3-1.7v-1.9c0-1.3-0.2-1.7-1.3-1.7h-0.3V42.1z"/>
		<path d="M118.1,35.4c2.1,0,3,0.6,3,2.4v2.3c0,1.4-0.5,2.1-2,2.2c1.6,0.1,2.1,0.8,2.1,2.4v5h-2v-5c0-1.3-0.2-1.6-1.5-1.6h-0.4v6.6
			h-1.8V35.4H118.1z M117.4,41.6h0.4c1.2,0,1.4-0.4,1.4-1.6v-1.6c0-1.2-0.3-1.6-1.4-1.6h-0.4V41.6z"/>
		<path d="M124.4,35.4v14.3h-1.9V35.4H124.4z"/>
		<path d="M127,35.4l1.3,12h0.1l1.2-12h1.6l-1.8,14.3H127l-2-14.3C125,35.4,127,35.4,127,35.4z"/>
		<path d="M136,35.4l2.2,14.3h-2l-0.5-3.6h-2.4l-0.5,3.6h-1.6l2.3-14.3C133.5,35.4,136,35.4,136,35.4z M133.6,44.6h2l-0.9-7.6h-0.1
			L133.6,44.6z"/>
		<path d="M144.2,39.3h-1.8v-1c0-1.1-0.2-1.7-0.8-1.7c-0.8,0-0.9,0.6-0.9,2v7.8c0,1.4,0.1,2,0.9,2c0.6,0,0.8-0.5,0.8-1.6v-1.3h1.9
			v1.3c0,2.2-0.6,3.1-2.7,3.1c-2.2,0-2.7-1.1-2.7-3.8V39c0-2.7,0.6-3.8,2.7-3.8c2.1,0,2.7,0.9,2.7,3.1v1H144.2z"/>
		<path d="M146,35.4l1.3,6.3h0.1l1.2-6.3h1.6l-2.2,8.3v5.9h-1.8v-5.9l-2-8.3H146z"/>
		<path d="M159,39.3h-1.8v-1c0-1.1-0.2-1.7-0.8-1.7c-0.8,0-0.9,0.6-0.9,2v7.8c0,1.4,0.1,2,0.9,2c0.6,0,0.8-0.5,0.8-1.6v-1.3h1.9v1.3
			c0,2.2-0.6,3.1-2.7,3.1c-2.2,0-2.7-1.1-2.7-3.8V39c0-2.7,0.6-3.8,2.7-3.8s2.7,0.9,2.7,3.1L159,39.3L159,39.3z"/>
		<path d="M164.4,35.4v1.5H162v4.5h2.3v1.5H162v5.2h2.6v1.5h-4.4V35.4H164.4z"/>
		<path d="M168,35.4c2.1,0,3,0.6,3,2.4v2.3c0,1.4-0.5,2.1-2,2.2c1.6,0.1,2.1,0.8,2.1,2.4v5h-1.9v-5c0-1.3-0.2-1.6-1.5-1.6h-0.4v6.6
			h-1.8V35.4H168z M167.4,41.6h0.4c1.2,0,1.4-0.4,1.4-1.6v-1.6c0-1.2-0.3-1.6-1.4-1.6h-0.4V41.6z"/>
		<path d="M177,35.4v1.5h-1.7v12.7h-1.9V36.9h-1.7v-1.5H177z"/>
		<path d="M179.5,35.4v14.3h-1.9V35.4H179.5z"/>
		<path d="M185.4,35.4v1.5H183v4.7h2.3v1.5H183v6.6h-1.8V35.4H185.4z"/>
		<path d="M188.3,35.4v14.3h-1.9V35.4H188.3z"/>
		<path d="M194,35.4v1.5h-2.4v4.5h2.3v1.5h-2.3v5.2h2.6v1.5h-4.4V35.4H194z"/>
		<path d="M197.3,35.4c3,0,3.6,0.8,3.6,4v6.3c0,3.1-0.6,4-3.6,4h-1.9V35.4H197.3z M197.2,48.2h0.4c1.2,0,1.5-0.3,1.5-1.6v-8.2
			c0-1.2-0.3-1.6-1.5-1.6h-0.4V48.2z"/>
	</g>
	<g>
		<g>
			<polygon class="st0" points="106.1,169.1 106.1,155.6 125.9,155.6 125.9,158.8 114.1,158.8 114.1,160.7 124.1,160.7 124.1,163.9 
				114.1,163.9 114.1,166 126.4,166 126.4,169.1 			"/>
		</g>
		<g>
			<path class="st0" d="M143.3,159.6c-0.1-0.5-0.6-0.7-1.2-0.9c-0.6-0.2-1.3-0.2-2.1-0.2c-1.8,0-2.5,0.3-2.5,0.8c0,2,14,0.8,14,5.7
				c0,3.1-4.7,4.7-11.4,4.7c-6.4,0-10.6-2.1-10.8-4.5h7.6c0.2,0.5,0.6,0.8,1.3,1.1c0.6,0.2,1.5,0.3,2.3,0.3c2,0,3.3-0.3,3.3-1
				c0-2-14-0.6-14-5.8c0-2.9,4.5-4.3,10.6-4.3c6.8,0,9.8,1.9,10.4,4.3h-7.5V159.6z"/>
		</g>
		<g>
			<path class="st0" d="M163.4,161.5h3.1c2.5,0,3.8-0.4,3.8-1.3c0-1-1.4-1.4-3.2-1.4h-3.7C163.4,158.8,163.4,161.5,163.4,161.5z
				 M163.4,164.4v4.7h-8v-13.5h11.5c8.1,0,10.8,1.2,10.8,3.9c0,1.6-1.2,2.9-4.1,3.3c2.6,0.5,4.1,0.8,4.1,3.6c0,1.8-0.1,2.4,0.8,2.4
				v0.4h-8.1c-0.2-0.3-0.4-1.2-0.4-2.4c0-1.8-0.5-2.3-4.3-2.3L163.4,164.4L163.4,164.4z"/>
		</g>
		<g>
			<path class="st0" d="M190.5,158.8v2.3h3.3c1.6,0,2.7-0.4,2.7-1.2c0-1.1-1.6-1.1-3.2-1.1H190.5z M190.5,163.5v2.5h3.5
				c2,0,3.5-0.2,3.5-1.2c0-1.2-1.9-1.3-4.4-1.3H190.5z M182.5,169.1v-13.5h11.6c5.5,0,9.8,0.7,9.8,3.4c0,1.4-1.6,2.4-3.2,2.9
				c2.6,0.4,4.1,1.6,4.1,3.1c0,3-4.2,4.1-10.5,4.1H182.5z"/>
		</g>
	</g>
	<path class="st0" d="M117.1,89.5c-1.9,1.3-3.3,3-3.2,5.6c0.1,2.7,1.8,4.3,4.1,5.4c-1.3,2.2-1.9,4.3-0.7,6.6
		c1.2,2.4,3.3,3.2,5.9,3.2c0,0.7,0,1.2,0,1.7c-0.1,4.1,3.7,6.9,7.6,5.6c1.1-0.4,1.4-0.1,1.8,0.9c1.4,4,6.2,5.2,9.4,2.3
		c0.3-0.3,0.6-0.5,1-0.9c1.6,2.1,3.6,3.1,6.1,2.7c2.6-0.4,3.9-2.3,4.9-4.6c2.3,1.2,4.6,1.4,6.7,0c2.2-1.5,2.7-3.7,2.5-6.2
		c2.5,0,4.7-0.5,6.1-2.7c1.4-2.2,1-4.5-0.2-6.8c2.4-0.9,4.1-2.4,4.5-5c0.4-2.6-0.9-4.5-2.8-6c0.2-0.2,0.2-0.4,0.3-0.5
		c3.5-3.2,2-9.2-2.6-10.1c-0.8-0.2-0.7-0.6-0.6-1.2c0.2-1.1,0.4-2.3,0.2-3.4c-0.6-3-3-4.5-6.4-4.3c-0.9,0.1-1.3-0.1-1.4-1.1
		c-0.3-3.1-2.8-5.3-5.9-5.1c-1.3,0.1-2.6,0.7-4.1,1.1c-1.1-1.9-2.6-3.5-5.3-3.6c-2.7-0.1-4.4,1.3-5.8,3.6c-2-1.7-4.1-2.4-6.6-1.4
		s-3.5,3-3.8,5.6c-0.4-0.1-0.6-0.1-0.8-0.2c-5.2-1.1-8.4,3.3-7.1,7.3c0.2,0.7-0.1,0.9-0.8,1.1c-3.5,0.8-5.3,3.4-4.6,6.8
		C115.7,87.2,116.4,88.3,117.1,89.5z"/>
	<path class="st0" d="M176.4,96.2c0,0.2-0.1,0.3-0.1,0.4c-0.1,2.8-1.2,5-3.3,6.8c-0.3,0.2-0.4,0.9-0.3,1.4c0.6,4.3-1.8,8.2-6,9.5
		c-0.4,0.1-0.7,0.4-1.1,0.6c0.3,0.3,0.6,0.7,0.9,0.9c6.3,3.4,12.6,6.7,18.8,10.1c0.3,0.2,0.7,0.3,1,0.5c0-3.9,0-7.6,0-11.4
		c0-0.5,0.4-1.1,0.8-1.4c1.4-1,2.9-1.9,4.3-2.8c1.7-1.1,3.5-2.3,5.4-3.5C190,103.4,183.4,99.8,176.4,96.2z"/>
	<path class="st0" d="M152.8,146.7c0.4-0.4,0.6-0.7,0.9-1c2.1-2.7,4.2-5.3,6.4-8c0.3-0.3,0.8-0.7,1.2-0.7c1.5,0.1,2.9,0.3,4.4,0.5
		c2.4,0.3,4.7,0.5,7.4,0.8c-2.9-6.9-5.6-13.7-8.4-20.5c-2.7,3.2-4.6,4-8.6,3.8c-0.4,0-1,0.3-1.3,0.7c-1.8,2.1-4,3.2-6.7,3.1
		c-1.4-0.1-2.7-0.5-4.2-0.8C146.8,132,149.8,139.3,152.8,146.7z"/>
	<path class="st0" d="M196.8,138.1c-2.6,0-4.6,2-4.6,4.6c0,2.5,2.1,4.5,4.6,4.5c2.6,0,4.5-2,4.5-4.6
		C201.3,140.1,199.3,138.1,196.8,138.1z"/>
	<path class="st1" d="M117.1,89.5c-0.6-1.3-1.4-2.4-1.6-3.6c-0.7-3.4,1.2-6,4.6-6.8c0.7-0.2,1-0.4,0.8-1.1c-1.3-4,1.9-8.4,7.1-7.3
		c0.2,0,0.5,0.1,0.8,0.2c0.3-2.5,1.3-4.6,3.8-5.6c2.4-0.9,4.5-0.2,6.6,1.4c1.4-2.3,3.1-3.7,5.8-3.6c2.6,0.1,4.2,1.7,5.3,3.6
		c1.5-0.4,2.8-1,4.1-1.1c3.1-0.2,5.6,2,5.9,5.1c0.1,1.1,0.5,1.2,1.4,1.1c3.4-0.2,5.8,1.3,6.4,4.3c0.2,1.1,0,2.3-0.2,3.4
		c-0.1,0.6-0.2,1.1,0.6,1.2c4.6,1,6.2,6.9,2.6,10.1c-0.1,0.1-0.2,0.3-0.3,0.5c2,1.5,3.2,3.4,2.8,6c-0.4,2.6-2.1,4-4.5,5
		c1.2,2.3,1.6,4.5,0.2,6.8c-1.4,2.2-3.6,2.8-6.1,2.7c0.2,2.5-0.3,4.7-2.5,6.2c-2.2,1.4-4.4,1.2-6.7,0c-0.9,2.3-2.2,4.2-4.9,4.6
		c-2.6,0.4-4.5-0.6-6.1-2.7c-0.4,0.3-0.7,0.6-1,0.9c-3.2,2.9-8,1.7-9.4-2.3c-0.4-1-0.7-1.3-1.8-0.9c-3.9,1.3-7.7-1.5-7.6-5.6
		c0-0.5,0-1,0-1.7c-2.5,0-4.6-0.8-5.9-3.2c-1.2-2.3-0.6-4.5,0.7-6.6c-2.3-1.1-4-2.7-4.1-5.4C113.8,92.5,115.2,90.8,117.1,89.5z
		 M144.1,118.2c13.9,0,25.1-11.1,25.2-25c0.1-13.8-11.3-25.1-25.2-25.1c-13.7,0-25,11.2-25,24.9C119,106.9,130.2,118.2,144.1,118.2z
		"/>
	<path class="st1" d="M176.4,96.2c6.9,3.7,13.6,7.3,20.5,11c-1.9,1.2-3.6,2.4-5.4,3.5c-1.4,0.9-2.9,1.8-4.3,2.8
		c-0.4,0.3-0.8,0.9-0.8,1.4c-0.1,3.8,0,7.5,0,11.4c-0.3-0.1-0.7-0.3-1-0.5c-6.3-3.4-12.6-6.7-18.8-10.1c-0.4-0.2-0.6-0.6-0.9-0.9
		c0.4-0.2,0.7-0.5,1.1-0.6c4.1-1.3,6.6-5.2,6-9.5c-0.1-0.4,0-1.1,0.3-1.4c2.1-1.8,3.2-4,3.3-6.8C176.4,96.5,176.4,96.4,176.4,96.2z"
		/>
	<path class="st1" d="M152.8,146.7c-3.1-7.4-6.1-14.7-9.1-22c1.5,0.3,2.8,0.7,4.2,0.8c2.7,0.1,4.9-1,6.7-3.1
		c0.3-0.4,0.9-0.7,1.3-0.7c4,0.2,5.9-0.6,8.6-3.8c2.8,6.8,5.6,13.6,8.4,20.5c-2.6-0.3-5-0.6-7.4-0.8c-1.5-0.2-2.9-0.4-4.4-0.5
		c-0.4,0-1,0.3-1.2,0.7c-2.2,2.6-4.3,5.3-6.4,8C153.4,146,153.2,146.3,152.8,146.7z"/>
	<path class="st0" d="M144.1,118.2c-13.9,0-25-11.3-25-25.3c0-13.7,11.3-24.9,25-24.9c13.9,0.1,25.3,11.4,25.2,25.2
		S157.9,118.2,144.1,118.2z M132.1,92.3c0.2-2.3,0.4-4.4,0.7-6.7c-2.7-1-5.1-2.3-6.9-4.7c-2.1,2.6-3.9,8.3-3.6,11.3
		C125.6,92.3,128.8,92.3,132.1,92.3z M122.2,94.2c0.3,4.2,1.4,7.9,3.7,11.4c1.8-2.5,4.3-3.7,6.9-4.8c-0.2-2.3-0.4-4.4-0.7-6.6
		C128.8,94.2,125.6,94.2,122.2,94.2z M162.5,81c-1.7,2.2-3.9,3.5-6.4,4.5c-0.3,0.1-0.5,0.6-0.5,1c0.1,1.6,0.3,3.3,0.4,4.9
		c0,0.8,0.3,1.1,1.1,1.1c1.9,0,3.8,0,5.8,0c3.4,0,3.4,0,2.8-3.3C165.3,86.2,164.3,83.5,162.5,81z M162.5,105.5
		c2.1-3.4,3.4-6.9,3.5-10.8c0-0.2-0.6-0.7-0.9-0.7c-2.7-0.1-5.4,0-8,0c-0.7,0-1,0.3-1,1c-0.1,1.7-0.3,3.3-0.4,5c0,0.3,0.3,0.8,0.5,1
		C158.7,102,160.9,103.3,162.5,105.5z M151.4,77.4c-2.4,0.5-4.3,0.8-6.2,1.3c-0.3,0.1-0.7,0.4-0.7,0.6c-0.1,2.1,0,4.2,0,6.7
		c3.2-0.4,6.2-0.8,9.5-1.3C153,81.9,152.2,79.5,151.4,77.4z M154,102.1c-3.2-0.9-6.2-1.4-9.4-1.3c0,2.4,0,4.6,0,6.7
		c2.2,0.5,4.4,1.1,6.8,1.7C152.2,107,153,104.6,154,102.1z M143,78.9c-2-0.5-3.8-1-5.9-1.6c-0.8,2.3-1.7,4.6-2.6,7.3
		c3.1,0.5,5.8,0.9,8.6,1.3C143,83.3,143,81,143,78.9z M142.9,107.6c0-2.2,0-4.5,0-7c-2.8,0.4-5.5,0.8-8.5,1.3c1,2.7,1.9,5.1,2.7,7.3
		C139.2,108.6,141,108.1,142.9,107.6z M144.6,92.4c3.2,0,6.3,0,9.4,0c0.2,0,0.7-0.5,0.6-0.7c-0.1-1.6-0.2-3.2-0.4-4.8
		c0-0.2-0.5-0.5-0.7-0.5c-3,0.4-5.9,0.9-8.9,1.4C144.6,89.2,144.6,90.7,144.6,92.4z M144.6,98.7c3,0.5,5.9,0.9,8.7,1.4
		c0.7,0.1,1,0,1-0.7c0.1-1.4,0.3-2.7,0.4-4.1c0.1-0.9-0.2-1.3-1.2-1.3c-2.6,0.1-5.3,0-7.9,0c-0.3,0-0.7,0.1-1,0.1
		C144.6,95.8,144.6,97.3,144.6,98.7z M134.2,86.3c-0.2,2-0.4,3.9-0.5,6c3.2,0,6.3,0,9.3,0c0-1.6,0-3.2,0-4.7
		C140,87.2,137.2,86.8,134.2,86.3z M134.2,100.1c3-0.5,5.9-0.9,8.8-1.3c0-1.5,0-3,0-4.6c-3.1,0-6.1,0-9.3,0
		C133.8,96.3,134,98.2,134.2,100.1z M155.4,83.9c2.2-0.7,4.3-1.8,5.8-3.7c0.2-0.3,0.2-1-0.1-1.2c-1.7-1.6-3.4-3.1-5.2-4.6
		c-0.2-0.2-0.8-0.2-1,0c-0.8,0.6-1.6,1.4-2.2,2C153.5,78.8,154.4,81.3,155.4,83.9z M152.7,110.2c0.7,0.6,1.4,1.3,2.2,1.9
		c0.2,0.2,0.8,0.2,1,0.1c1.8-1.5,3.6-3.1,5.3-4.7c0.2-0.2,0.3-0.8,0.1-1c-1.5-2.1-3.6-3.1-5.9-3.9
		C154.4,105.2,153.5,107.7,152.7,110.2z M133.1,83.9c0.6-1.8,1.1-3.4,1.6-4.9c0.3-0.9,1.1-1.8,0.9-2.5c-0.1-0.7-1.3-1.2-1.9-1.9
		c-0.5-0.6-0.9-0.7-1.5-0.2c-1.6,1.5-3.3,2.9-4.9,4.4c-0.6,0.6-0.5,1.1,0,1.6C129,82.1,130.9,83.1,133.1,83.9z M133,102.6
		c-2.1,0.8-4.1,1.7-5.6,3.5c-0.3,0.3-0.5,1-0.3,1.2c1.6,2.1,3.6,3.9,5.9,5.2c1-0.9,1.8-1.6,2.7-2.3C134.8,107.7,134,105.2,133,102.6
		z M144.6,114.7c2.6-0.2,4.2-1.9,5.7-3.9c-1.9-0.8-3.7-1.4-5.7-1.1C144.6,111.4,144.6,113,144.6,114.7z M144.6,71.8
		c0,1.8,0,3.4,0,5.3c1.9-0.4,3.7-0.8,5.7-1.3C148.8,73.6,147.2,72.1,144.6,71.8z M143,71.9c-2.1,0.6-3.5,2-4.9,3.9
		c1.7,0.4,3.2,0.8,4.9,1.2C143,75.2,143,73.6,143,71.9z M138.1,110.7c1.4,1.9,2.8,3.3,4.9,3.9c0-1.7,0-3.3,0-5.1
		C141.3,109.9,139.8,110.2,138.1,110.7z M134.4,73.1c0.9,0.7,1.6,1.3,2.3,1.8c1.1-1.2,2-2.3,3-3.4c0-0.1-0.1-0.1-0.1-0.2
		C138,71.8,136.3,72.4,134.4,73.1z M134.4,113.4c2,0.7,3.6,1.2,5.2,1.8c0-0.1,0.1-0.1,0.1-0.2c-1-1.1-2-2.2-3-3.4
		C136,112.1,135.4,112.6,134.4,113.4z M151.8,111.6c-1.1,1.2-2.1,2.3-3.1,3.4c0,0.1,0,0.1,0.1,0.2c1.7-0.6,3.3-1.1,5.2-1.8
		C153,112.7,152.4,112.1,151.8,111.6z M151.8,74.9c0.7-0.5,1.3-1.1,2.2-1.8c-1.9-0.7-3.6-1.2-5.2-1.8c0,0.1,0,0.1,0,0.2
		C149.7,72.6,150.7,73.6,151.8,74.9z"/>
	<path class="st1" d="M132.1,92.3c-3.3,0-6.5,0-9.8,0c-0.3-3,1.5-8.7,3.6-11.3c1.8,2.3,4.2,3.6,6.9,4.7
		C132.4,87.9,132.3,90.1,132.1,92.3z"/>
	<path class="st1" d="M122.2,94.2c3.4,0,6.6,0,9.9,0c0.2,2.2,0.4,4.3,0.7,6.6c-2.6,1-5.1,2.3-6.9,4.8
		C123.4,102,122.4,98.3,122.2,94.2z"/>
	<path class="st1" d="M162.5,81c1.7,2.5,2.7,5.2,3.3,8.1c0.5,3.3,0.5,3.3-2.9,3.3c-1.9,0-3.8,0-5.8,0c-0.8,0-1.1-0.3-1.1-1.1
		c-0.1-1.6-0.3-3.3-0.4-4.9c0-0.3,0.2-0.9,0.5-1C158.7,84.5,160.9,83.2,162.5,81z"/>
	<path class="st1" d="M162.5,105.5c-1.7-2.2-3.9-3.5-6.4-4.5c-0.3-0.1-0.5-0.6-0.5-1c0.1-1.7,0.3-3.3,0.4-5c0-0.7,0.3-1,1-1
		c2.7,0,5.4,0,8,0c0.3,0,0.9,0.4,0.9,0.7C166,98.7,164.7,102.2,162.5,105.5z"/>
	<path class="st1" d="M151.4,77.4c0.8,2.1,1.6,4.5,2.6,7.2c-3.3,0.5-6.3,0.9-9.5,1.3c0-2.4,0-4.6,0-6.7c0-0.2,0.4-0.6,0.7-0.6
		C147.2,78.2,149,77.9,151.4,77.4z"/>
	<path class="st1" d="M154,102.1c-0.9,2.5-1.8,4.9-2.5,7.1c-2.5-0.6-4.6-1.1-6.8-1.7c0-2.1,0-4.4,0-6.7
		C147.7,100.7,150.8,101.2,154,102.1z"/>
	<path class="st1" d="M143,78.9c0,2.2,0,4.5,0,7c-2.8-0.4-5.5-0.8-8.6-1.3c1-2.7,1.8-5.1,2.6-7.3C139.1,77.8,141,78.3,143,78.9z"/>
	<path class="st1" d="M142.9,107.6c-1.9,0.5-3.7,1-5.9,1.6c-0.8-2.2-1.8-4.6-2.8-7.3c3-0.5,5.7-0.9,8.6-1.3
		C142.9,103.2,142.9,105.4,142.9,107.6z"/>
	<path class="st1" d="M144.6,92.4c0-1.7,0-3.2,0-4.6c3-0.5,6-1,8.9-1.4c0.2,0,0.7,0.3,0.7,0.5c0.2,1.6,0.4,3.2,0.4,4.8
		c0,0.2-0.4,0.7-0.6,0.7C150.9,92.4,147.8,92.4,144.6,92.4z"/>
	<path class="st1" d="M144.6,98.7c0-1.4,0-2.9,0-4.5c0.3,0,0.7-0.1,1-0.1c2.6,0,5.3,0,7.9,0c1,0,1.3,0.4,1.2,1.3
		c-0.2,1.3-0.3,2.7-0.4,4.1c-0.1,0.7-0.4,0.8-1,0.7C150.4,99.6,147.6,99.2,144.6,98.7z"/>
	<path class="st1" d="M134.2,86.3c3,0.5,5.8,0.9,8.8,1.3c0,1.5,0,3,0,4.7c-3.1,0-6.1,0-9.3,0C133.8,90.3,134,88.3,134.2,86.3z"/>
	<path class="st1" d="M134.2,100.1c-0.2-1.9-0.4-3.9-0.6-5.9c3.2,0,6.3,0,9.3,0c0,1.6,0,3.1,0,4.6
		C140.1,99.2,137.2,99.7,134.2,100.1z"/>
	<path class="st1" d="M155.4,83.9c-0.9-2.6-1.8-5-2.7-7.5c0.7-0.6,1.4-1.4,2.2-2c0.2-0.2,0.8-0.2,1,0c1.8,1.5,3.5,3,5.2,4.6
		c0.2,0.2,0.3,0.9,0.1,1.2C159.7,82.1,157.5,83.1,155.4,83.9z"/>
	<path class="st1" d="M152.7,110.2c0.9-2.5,1.8-4.9,2.7-7.5c2.3,0.8,4.4,1.8,5.9,3.9c0.1,0.2,0.1,0.8-0.1,1
		c-1.7,1.6-3.5,3.1-5.3,4.7c-0.2,0.2-0.8,0.1-1-0.1C154,111.5,153.4,110.8,152.7,110.2z"/>
	<path class="st1" d="M133.1,83.9c-2.2-0.8-4.1-1.8-5.6-3.5c-0.5-0.6-0.7-1.1,0-1.6c1.6-1.5,3.3-2.9,4.9-4.4c0.6-0.5,1-0.4,1.5,0.2
		c0.6,0.7,1.7,1.2,1.9,1.9c0.1,0.7-0.6,1.6-0.9,2.5C134.2,80.6,133.7,82.2,133.1,83.9z"/>
	<path class="st1" d="M133,102.6c0.9,2.6,1.8,5.1,2.7,7.6c-0.8,0.7-1.7,1.5-2.7,2.3c-2.3-1.3-4.3-3.1-5.9-5.2
		c-0.2-0.2,0.1-0.9,0.3-1.2C128.9,104.3,130.9,103.4,133,102.6z"/>
	<path class="st1" d="M144.6,114.7c0-1.7,0-3.3,0-5c2-0.2,3.8,0.4,5.7,1.1C148.8,112.8,147.2,114.5,144.6,114.7z"/>
	<path class="st1" d="M144.6,71.8c2.6,0.3,4.2,1.9,5.7,4.1c-2,0.4-3.8,0.8-5.7,1.3C144.6,75.2,144.6,73.5,144.6,71.8z"/>
	<path class="st1" d="M143,71.9c0,1.7,0,3.3,0,5.1c-1.6-0.4-3.1-0.8-4.9-1.2C139.4,73.9,140.8,72.5,143,71.9z"/>
	<path class="st1" d="M138.1,110.7c1.8-0.4,3.2-0.8,4.9-1.2c0,1.8,0,3.4,0,5.1C140.9,114,139.4,112.6,138.1,110.7z"/>
	<path class="st1" d="M134.4,73.1c1.9-0.7,3.5-1.2,5.2-1.8c0,0.1,0.1,0.1,0.1,0.2c-1,1.1-1.9,2.1-3,3.4
		C136.1,74.3,135.4,73.8,134.4,73.1z"/>
	<path class="st1" d="M134.4,113.4c1-0.8,1.6-1.3,2.3-1.8c1.1,1.2,2,2.3,3,3.4c0,0.1-0.1,0.1-0.1,0.2
		C138,114.6,136.4,114.1,134.4,113.4z"/>
	<path class="st1" d="M151.8,111.6c0.6,0.5,1.3,1,2.3,1.8c-1.9,0.7-3.6,1.2-5.2,1.8c0-0.1,0-0.1-0.1-0.2
		C149.7,113.9,150.7,112.8,151.8,111.6z"/>
	<path class="st1" d="M151.8,74.9c-1.1-1.2-2.1-2.3-3-3.4c0-0.1,0-0.1,0-0.2c1.6,0.6,3.3,1.1,5.2,1.8
		C153,73.8,152.4,74.3,151.8,74.9z"/>
	<path class="st0" d="M195.7,142.3c0-0.7,0.1-1.1,0.1-1.7c0.7,0.2,1.2,0.3,1.8,0.5c0.1,0,0.1,0.5,0,0.5
		C197,141.9,196.4,142,195.7,142.3z"/>
	<path class="st2" d="M196.7,142.1c0.8,0,1-0.3,1-0.7c0-0.4-0.2-0.6-0.9-0.6h-1v1.3C195.8,142.1,196.7,142.1,196.7,142.1z
		 M195.8,142.9v2.2h-0.9V140h1.8c1,0,2,0.3,2,1.4c0,0.6-0.4,1-1.1,1.2l0,0c0.7,0.1,0.8,0.5,0.9,1s0.1,1,0.3,1.5h-1.1
		c-0.1-0.3-0.1-0.6-0.2-0.9c-0.1-0.4-0.1-0.8-0.3-1.1c-0.2-0.2-0.5-0.2-0.8-0.2H195.8 M200.5,142.6c0-2-1.7-3.5-3.8-3.5
		c-2.1,0-3.8,1.6-3.8,3.5c0,2,1.7,3.6,3.8,3.6C198.9,146.1,200.5,144.5,200.5,142.6 M192,142.6c0-2.4,2.1-4.3,4.7-4.3
		s4.6,1.9,4.6,4.3s-2.1,4.3-4.6,4.3C194.2,146.9,192,144.9,192,142.6"/>
</g>
</svg>
